<?xml version="1.0" encoding="utf-8"?>
<!-- Generator: Adobe Illustrator 15.0.0, SVG Export Plug-In . SVG Version: 6.00 Build 0)  -->
<!DOCTYPE svg PUBLIC "-//W3C//DTD SVG 1.1//EN" "http://www.w3.org/Graphics/SVG/1.1/DTD/svg11.dtd">
<svg version="1.1" id="Layer_1" xmlns="http://www.w3.org/2000/svg" xmlns:xlink="http://www.w3.org/1999/xlink" x="0px" y="0px"
	 width="100px" height="100px" viewBox="0 0 100 100" enable-background="new 0 0 100 100" xml:space="preserve">
<path fill="#333333" d="M54.691,9.382c-12.51-12.51-32.799-12.51-45.31,0c-12.51,12.51-12.51,32.798,0,45.31
	C20.933,66.243,39.097,67.1,51.663,57.326l8.69,8.691v5.664L88.673,100L100,88.672L71.682,60.354H66.02l-8.692-8.689
	C67.1,39.098,66.243,20.933,54.691,9.382z M15.046,49.027c-9.382-9.383-9.382-24.601,0-33.981c9.381-9.382,24.599-9.382,33.981,0
	c9.381,9.381,9.381,24.598,0,33.981C39.645,58.409,24.427,58.409,15.046,49.027z"/>
</svg>
